<svg width="100" height="24" viewBox="0 0 100 24" fill="none" xmlns="http://www.w3.org/2000/svg">
<path d="M0.5 4.54606C0.5 2.70129 1.99548 1.20581 3.84025 1.20581H19.2012C21.046 1.20581 22.5415 2.70129 22.5415 4.54606V19.907C22.5415 21.7518 21.046 23.2473 19.2012 23.2473H3.84025C1.99548 23.2473 0.5 21.7518 0.5 19.907V4.54606Z" fill="#FF4C00" stroke="white"/>
<path d="M0 4.54606C0 2.42515 1.71934 0.705811 3.84025 0.705811H17.2811C17.2811 10.2499 9.54409 17.9869 0 17.9869V4.54606Z" fill="white" fill-opacity="0.7"/>
<path opacity="0.53" d="M21.1214 19.9069C21.1214 20.9674 20.2617 21.827 19.2012 21.827L5.76038 21.827C5.76038 13.3434 12.6377 6.46606 21.1214 6.46606L21.1214 19.9069Z" fill="white"/>
<path d="M32.6162 4.83476V10.6649H40.4846V14.7887H32.6162V23.7472H27.2443V0.726794H42.0645V4.83476H32.6162Z" fill="#FF4C00"/>
<path d="M32.6162 4.83476V10.6649H40.4846V14.7887H32.6162V23.7472H27.2443V0.726794H42.0645V4.83476H32.6162Z" fill="url(#paint0_linear)"/>
<path d="M50.8814 17.0797C49.9018 17.1218 49.096 17.2061 48.464 17.3325C47.832 17.4589 47.3317 17.6169 46.963 17.8065C46.5943 17.996 46.3363 18.212 46.1888 18.4542C46.0519 18.6965 45.9834 18.9598 45.9834 19.2442C45.9834 19.8025 46.1361 20.1975 46.4416 20.4292C46.7471 20.6504 47.1947 20.761 47.7846 20.761C48.4166 20.761 48.9696 20.6504 49.4436 20.4292C49.9176 20.208 50.3968 19.8499 50.8814 19.3548V17.0797ZM42.065 9.63792C43.0552 8.76366 44.1506 8.11586 45.3514 7.69454C46.5627 7.26267 47.8583 7.04674 49.2382 7.04674C50.2283 7.04674 51.1184 7.21001 51.9083 7.53654C52.7089 7.85253 53.383 8.3002 53.9307 8.87953C54.489 9.44832 54.9156 10.1277 55.2105 10.9177C55.5055 11.7077 55.6529 12.5714 55.6529 13.5089V23.7472H53.4093C52.9459 23.7472 52.593 23.684 52.3507 23.5576C52.119 23.4312 51.9241 23.1679 51.7661 22.7676L51.4186 21.867C51.0078 22.2146 50.6128 22.5201 50.2336 22.7834C49.8544 23.0467 49.4594 23.2732 49.0486 23.4628C48.6483 23.6419 48.2164 23.7735 47.753 23.8578C47.3001 23.9526 46.7945 24 46.2362 24C45.4883 24 44.8089 23.9052 44.198 23.7156C43.5871 23.5155 43.0657 23.2258 42.6338 22.8466C42.2125 22.4674 41.886 21.9987 41.6542 21.4404C41.4225 20.8716 41.3066 20.2186 41.3066 19.4812C41.3066 18.8914 41.4541 18.2962 41.749 17.6959C42.044 17.0849 42.5548 16.5319 43.2816 16.0369C44.0084 15.5313 44.988 15.1099 46.2204 14.7729C47.4528 14.4358 49.0064 14.2462 50.8814 14.2041V13.5089C50.8814 12.5504 50.6812 11.8604 50.281 11.4391C49.8912 11.0072 49.333 10.7913 48.6062 10.7913C48.0268 10.7913 47.5529 10.8545 47.1842 10.9809C46.8155 11.1073 46.4837 11.2495 46.1888 11.4075C45.9044 11.5655 45.6253 11.7077 45.3514 11.8341C45.0775 11.9605 44.751 12.0237 44.3718 12.0237C44.0347 12.0237 43.7504 11.9394 43.5186 11.7709C43.2869 11.6024 43.0973 11.4022 42.9498 11.1705L42.065 9.63792Z" fill="#FF4C00"/>
<path d="M50.8814 17.0797C49.9018 17.1218 49.096 17.2061 48.464 17.3325C47.832 17.4589 47.3317 17.6169 46.963 17.8065C46.5943 17.996 46.3363 18.212 46.1888 18.4542C46.0519 18.6965 45.9834 18.9598 45.9834 19.2442C45.9834 19.8025 46.1361 20.1975 46.4416 20.4292C46.7471 20.6504 47.1947 20.761 47.7846 20.761C48.4166 20.761 48.9696 20.6504 49.4436 20.4292C49.9176 20.208 50.3968 19.8499 50.8814 19.3548V17.0797ZM42.065 9.63792C43.0552 8.76366 44.1506 8.11586 45.3514 7.69454C46.5627 7.26267 47.8583 7.04674 49.2382 7.04674C50.2283 7.04674 51.1184 7.21001 51.9083 7.53654C52.7089 7.85253 53.383 8.3002 53.9307 8.87953C54.489 9.44832 54.9156 10.1277 55.2105 10.9177C55.5055 11.7077 55.6529 12.5714 55.6529 13.5089V23.7472H53.4093C52.9459 23.7472 52.593 23.684 52.3507 23.5576C52.119 23.4312 51.9241 23.1679 51.7661 22.7676L51.4186 21.867C51.0078 22.2146 50.6128 22.5201 50.2336 22.7834C49.8544 23.0467 49.4594 23.2732 49.0486 23.4628C48.6483 23.6419 48.2164 23.7735 47.753 23.8578C47.3001 23.9526 46.7945 24 46.2362 24C45.4883 24 44.8089 23.9052 44.198 23.7156C43.5871 23.5155 43.0657 23.2258 42.6338 22.8466C42.2125 22.4674 41.886 21.9987 41.6542 21.4404C41.4225 20.8716 41.3066 20.2186 41.3066 19.4812C41.3066 18.8914 41.4541 18.2962 41.749 17.6959C42.044 17.0849 42.5548 16.5319 43.2816 16.0369C44.0084 15.5313 44.988 15.1099 46.2204 14.7729C47.4528 14.4358 49.0064 14.2462 50.8814 14.2041V13.5089C50.8814 12.5504 50.6812 11.8604 50.281 11.4391C49.8912 11.0072 49.333 10.7913 48.6062 10.7913C48.0268 10.7913 47.5529 10.8545 47.1842 10.9809C46.8155 11.1073 46.4837 11.2495 46.1888 11.4075C45.9044 11.5655 45.6253 11.7077 45.3514 11.8341C45.0775 11.9605 44.751 12.0237 44.3718 12.0237C44.0347 12.0237 43.7504 11.9394 43.5186 11.7709C43.2869 11.6024 43.0973 11.4022 42.9498 11.1705L42.065 9.63792Z" fill="url(#paint1_linear)"/>
<path d="M63.1939 9.13232C63.5099 8.83739 63.8364 8.56353 64.1735 8.31073C64.5106 8.05793 64.8687 7.84727 65.2479 7.67873C65.6376 7.49967 66.0537 7.36274 66.4961 7.26794C66.949 7.16261 67.4388 7.10994 67.9655 7.10994C68.8608 7.10994 69.6508 7.26794 70.3354 7.58394C71.0306 7.8894 71.6152 8.32126 72.0892 8.87953C72.5632 9.42725 72.9214 10.0856 73.1636 10.8545C73.4059 11.6129 73.527 12.4398 73.527 13.3351V23.7472H68.6291V13.3351C68.6291 12.5346 68.4447 11.9131 68.0761 11.4707C67.7074 11.0178 67.1649 10.7913 66.4487 10.7913C65.9115 10.7913 65.4059 10.9072 64.9319 11.1389C64.4684 11.3601 64.0155 11.6656 63.5731 12.0553V23.7472H58.6751V7.36274H61.7087C62.3196 7.36274 62.7199 7.6366 62.9095 8.18433L63.1939 9.13232Z" fill="#FF4C00"/>
<path d="M63.1939 9.13232C63.5099 8.83739 63.8364 8.56353 64.1735 8.31073C64.5106 8.05793 64.8687 7.84727 65.2479 7.67873C65.6376 7.49967 66.0537 7.36274 66.4961 7.26794C66.949 7.16261 67.4388 7.10994 67.9655 7.10994C68.8608 7.10994 69.6508 7.26794 70.3354 7.58394C71.0306 7.8894 71.6152 8.32126 72.0892 8.87953C72.5632 9.42725 72.9214 10.0856 73.1636 10.8545C73.4059 11.6129 73.527 12.4398 73.527 13.3351V23.7472H68.6291V13.3351C68.6291 12.5346 68.4447 11.9131 68.0761 11.4707C67.7074 11.0178 67.1649 10.7913 66.4487 10.7913C65.9115 10.7913 65.4059 10.9072 64.9319 11.1389C64.4684 11.3601 64.0155 11.6656 63.5731 12.0553V23.7472H58.6751V7.36274H61.7087C62.3196 7.36274 62.7199 7.6366 62.9095 8.18433L63.1939 9.13232Z" fill="url(#paint2_linear)"/>
<path d="M81.4862 0.094798V13.3509H82.213C82.5185 13.3509 82.7502 13.3088 82.9082 13.2245C83.0662 13.1297 83.2242 12.977 83.3822 12.7663L86.479 8.15273C86.6686 7.8894 86.8845 7.69453 87.1267 7.56814C87.369 7.4312 87.6797 7.36274 88.0589 7.36274H92.5461L88.3117 13.1929C87.9115 13.7196 87.4375 14.1514 86.8898 14.4885C87.132 14.6675 87.3532 14.8782 87.5533 15.1205C87.7535 15.3522 87.9431 15.6155 88.1221 15.9105L92.7357 23.7472H88.3117C87.9431 23.7472 87.6271 23.6893 87.3637 23.5734C87.1004 23.447 86.8792 23.2311 86.7002 22.9256L83.6034 17.1271C83.4559 16.8637 83.3032 16.6952 83.1452 16.6215C82.9872 16.5372 82.7502 16.4951 82.4342 16.4951H81.4862V23.7472H76.5882V0.094798H81.4862Z" fill="#FF4C00"/>
<path d="M81.4862 0.094798V13.3509H82.213C82.5185 13.3509 82.7502 13.3088 82.9082 13.2245C83.0662 13.1297 83.2242 12.977 83.3822 12.7663L86.479 8.15273C86.6686 7.8894 86.8845 7.69453 87.1267 7.56814C87.369 7.4312 87.6797 7.36274 88.0589 7.36274H92.5461L88.3117 13.1929C87.9115 13.7196 87.4375 14.1514 86.8898 14.4885C87.132 14.6675 87.3532 14.8782 87.5533 15.1205C87.7535 15.3522 87.9431 15.6155 88.1221 15.9105L92.7357 23.7472H88.3117C87.9431 23.7472 87.6271 23.6893 87.3637 23.5734C87.1004 23.447 86.8792 23.2311 86.7002 22.9256L83.6034 17.1271C83.4559 16.8637 83.3032 16.6952 83.1452 16.6215C82.9872 16.5372 82.7502 16.4951 82.4342 16.4951H81.4862V23.7472H76.5882V0.094798H81.4862Z" fill="url(#paint3_linear)"/>
<path d="M99.1396 7.36274V23.7472H94.2416V7.36274H99.1396ZM99.6452 2.87557C99.6452 3.26531 99.5662 3.63397 99.4082 3.98157C99.2502 4.31863 99.0342 4.61883 98.7604 4.88216C98.4865 5.13496 98.1653 5.34035 97.7966 5.49835C97.4385 5.64582 97.054 5.71955 96.6432 5.71955C96.2429 5.71955 95.869 5.64582 95.5214 5.49835C95.1738 5.34035 94.8631 5.13496 94.5892 4.88216C94.3259 4.61883 94.1152 4.31863 93.9572 3.98157C93.8098 3.63397 93.736 3.26531 93.736 2.87557C93.736 2.47531 93.8098 2.10138 93.9572 1.75378C94.1152 1.40619 94.3259 1.10072 94.5892 0.837393C94.8631 0.574062 95.1738 0.368663 95.5214 0.221197C95.869 0.0737324 96.2429 0 96.6432 0C97.054 0 97.4385 0.0737324 97.7966 0.221197C98.1653 0.368663 98.4865 0.574062 98.7604 0.837393C99.0342 1.10072 99.2502 1.40619 99.4082 1.75378C99.5662 2.10138 99.6452 2.47531 99.6452 2.87557Z" fill="#FF4C00"/>
<path d="M99.1396 7.36274V23.7472H94.2416V7.36274H99.1396ZM99.6452 2.87557C99.6452 3.26531 99.5662 3.63397 99.4082 3.98157C99.2502 4.31863 99.0342 4.61883 98.7604 4.88216C98.4865 5.13496 98.1653 5.34035 97.7966 5.49835C97.4385 5.64582 97.054 5.71955 96.6432 5.71955C96.2429 5.71955 95.869 5.64582 95.5214 5.49835C95.1738 5.34035 94.8631 5.13496 94.5892 4.88216C94.3259 4.61883 94.1152 4.31863 93.9572 3.98157C93.8098 3.63397 93.736 3.26531 93.736 2.87557C93.736 2.47531 93.8098 2.10138 93.9572 1.75378C94.1152 1.40619 94.3259 1.10072 94.5892 0.837393C94.8631 0.574062 95.1738 0.368663 95.5214 0.221197C95.869 0.0737324 96.2429 0 96.6432 0C97.054 0 97.4385 0.0737324 97.7966 0.221197C98.1653 0.368663 98.4865 0.574062 98.7604 0.837393C99.0342 1.10072 99.2502 1.40619 99.4082 1.75378C99.5662 2.10138 99.6452 2.47531 99.6452 2.87557Z" fill="url(#paint4_linear)"/>
<defs>
<linearGradient id="paint0_linear" x1="99.6452" y1="-4.3497e-06" x2="25.8324" y2="18.3078" gradientUnits="userSpaceOnUse">
<stop stop-color="white" stop-opacity="0.5"/>
<stop offset="1" stop-color="white" stop-opacity="0"/>
</linearGradient>
<linearGradient id="paint1_linear" x1="99.6452" y1="-4.3497e-06" x2="25.8324" y2="18.3078" gradientUnits="userSpaceOnUse">
<stop stop-color="white" stop-opacity="0.5"/>
<stop offset="1" stop-color="white" stop-opacity="0"/>
</linearGradient>
<linearGradient id="paint2_linear" x1="99.6452" y1="-4.3497e-06" x2="25.8324" y2="18.3078" gradientUnits="userSpaceOnUse">
<stop stop-color="white" stop-opacity="0.5"/>
<stop offset="1" stop-color="white" stop-opacity="0"/>
</linearGradient>
<linearGradient id="paint3_linear" x1="99.6452" y1="-4.3497e-06" x2="25.8324" y2="18.3078" gradientUnits="userSpaceOnUse">
<stop stop-color="white" stop-opacity="0.5"/>
<stop offset="1" stop-color="white" stop-opacity="0"/>
</linearGradient>
<linearGradient id="paint4_linear" x1="99.6452" y1="-4.3497e-06" x2="25.8324" y2="18.3078" gradientUnits="userSpaceOnUse">
<stop stop-color="white" stop-opacity="0.5"/>
<stop offset="1" stop-color="white" stop-opacity="0"/>
</linearGradient>
</defs>
</svg>
