<svg width="18" height="18" viewBox="0 0 18 18" fill="none" xmlns="http://www.w3.org/2000/svg">
<path d="M15.75 9C16.1642 9 16.5039 9.33663 16.4625 9.74878C16.3402 10.9676 15.9208 12.142 15.236 13.1668C14.4119 14.4001 13.2406 15.3614 11.8701 15.9291C10.4997 16.4968 8.99168 16.6453 7.53682 16.3559C6.08196 16.0665 4.74559 15.3522 3.6967 14.3033C2.64781 13.2544 1.9335 11.918 1.64411 10.4632C1.35472 9.00832 1.50325 7.50032 2.0709 6.12987C2.63856 4.75943 3.59985 3.58809 4.83322 2.76398C5.85803 2.07923 7.03242 1.65975 8.25122 1.53747C8.66337 1.49611 9 1.83579 9 2.25C9 2.66421 8.66291 2.99517 8.25193 3.04681C7.33032 3.16262 6.44457 3.49135 5.66658 4.01118C4.67988 4.67047 3.91085 5.60754 3.45672 6.7039C3.0026 7.80026 2.88378 9.00666 3.11529 10.1705C3.3468 11.3344 3.91824 12.4035 4.75736 13.2426C5.59647 14.0818 6.66557 14.6532 7.82946 14.8847C8.99334 15.1162 10.1997 14.9974 11.2961 14.5433C12.3925 14.0892 13.3295 13.3201 13.9888 12.3334C14.5087 11.5554 14.8374 10.6697 14.9532 9.74807C15.0048 9.33709 15.3358 9 15.75 9Z" fill="#959595"/>
<circle cx="6.375" cy="7.125" r="1.125" fill="#959595"/>
<circle cx="11.625" cy="7.125" r="1.125" fill="#959595"/>
<path d="M12.75 9.75C12.75 10.7446 12.3549 11.6984 11.6517 12.4017C10.9484 13.1049 9.99456 13.5 9 13.5C8.00544 13.5 7.05161 13.1049 6.34835 12.4017C5.64509 11.6984 5.25 10.7446 5.25 9.75L9 9.75H12.75Z" fill="#959595"/>
<rect x="13.5" y="0.75" width="1.5" height="6" rx="0.75" fill="#959595"/>
<rect x="17.25" y="3" width="1.5" height="6" rx="0.75" transform="rotate(90 17.25 3)" fill="#959595"/>
</svg>
